name rise32.9588peak41.5061fall63.4684.mot
datacolumns 19
datarows 22
range 18.753260 18.788263
endheader
time	ground_force1_vx	ground_force1_vy	ground_force1_vz	ground_force1_px	ground_force1_py	ground_force1_pz	ground_force2_vx	ground_force2_vy	ground_force2_vz	ground_force2_px	ground_force2_py	ground_force2_pz	ground_torque1_x	ground_torque1_y	ground_torque1_z	ground_torque2_x	ground_torque2_y	ground_torque2_z	
18.753260	-37.601386	830.644084	42.173274	0.109179	0.000000	0.091522	0.000000	0.000000	0.000000	0.000000	0.000000	0.000000	0.000000	17.480853	0.000000	0.000000	0.000000	0.000000	
18.754934	-38.097170	832.141398	42.423873	0.108281	0.000000	0.091547	0.000000	0.000000	0.000000	0.000000	0.000000	0.000000	0.000000	17.490825	0.000000	0.000000	0.000000	0.000000	
18.756598	-38.574951	833.552851	42.671028	0.107384	0.000000	0.091574	0.000000	0.000000	0.000000	0.000000	0.000000	0.000000	0.000000	17.495385	0.000000	0.000000	0.000000	0.000000	
18.758266	-39.034530	834.875062	42.914142	0.106488	0.000000	0.091601	0.000000	0.000000	0.000000	0.000000	0.000000	0.000000	0.000000	17.494545	0.000000	0.000000	0.000000	0.000000	
18.759930	-39.475757	836.104772	43.152606	0.105594	0.000000	0.091629	0.000000	0.000000	0.000000	0.000000	0.000000	0.000000	0.000000	17.488332	0.000000	0.000000	0.000000	0.000000	
18.761599	-39.898528	837.238847	43.385804	0.104702	0.000000	0.091658	0.000000	0.000000	0.000000	0.000000	0.000000	0.000000	0.000000	17.476784	0.000000	0.000000	0.000000	0.000000	
18.763261	-40.302793	838.274288	43.613111	0.103812	0.000000	0.091687	0.000000	0.000000	0.000000	0.000000	0.000000	0.000000	0.000000	17.459954	0.000000	0.000000	0.000000	0.000000	
18.764926	-40.688554	839.208237	43.833900	0.102926	0.000000	0.091717	0.000000	0.000000	0.000000	0.000000	0.000000	0.000000	0.000000	17.437907	0.000000	0.000000	0.000000	0.000000	
18.766601	-41.055866	840.037986	44.047541	0.102043	0.000000	0.091747	0.000000	0.000000	0.000000	0.000000	0.000000	0.000000	0.000000	17.410723	0.000000	0.000000	0.000000	0.000000	
18.768262	-41.404841	840.760980	44.253402	0.101165	0.000000	0.091778	0.000000	0.000000	0.000000	0.000000	0.000000	0.000000	0.000000	17.378493	0.000000	0.000000	0.000000	0.000000	
18.769928	-41.735647	841.374825	44.450854	0.100292	0.000000	0.091808	0.000000	0.000000	0.000000	0.000000	0.000000	0.000000	0.000000	17.341323	0.000000	0.000000	0.000000	0.000000	
18.771596	-42.048510	841.877290	44.639272	0.099424	0.000000	0.091840	0.000000	0.000000	0.000000	0.000000	0.000000	0.000000	0.000000	17.299331	0.000000	0.000000	0.000000	0.000000	
18.773262	-42.343715	842.266310	44.818038	0.098563	0.000000	0.091871	0.000000	0.000000	0.000000	0.000000	0.000000	0.000000	0.000000	17.252648	0.000000	0.000000	0.000000	0.000000	
18.774930	-42.621605	842.539991	44.986541	0.097709	0.000000	0.091902	0.000000	0.000000	0.000000	0.000000	0.000000	0.000000	0.000000	17.201418	0.000000	0.000000	0.000000	0.000000	
18.776593	-42.882584	842.696609	45.144181	0.096864	0.000000	0.091933	0.000000	0.000000	0.000000	0.000000	0.000000	0.000000	0.000000	17.145794	0.000000	0.000000	0.000000	0.000000	
18.778264	-43.127115	842.734613	45.290372	0.096026	0.000000	0.091964	0.000000	0.000000	0.000000	0.000000	0.000000	0.000000	0.000000	17.085946	0.000000	0.000000	0.000000	0.000000	
18.779929	-43.355722	842.652625	45.424542	0.095198	0.000000	0.091995	0.000000	0.000000	0.000000	0.000000	0.000000	0.000000	0.000000	17.022050	0.000000	0.000000	0.000000	0.000000	
18.781593	-43.568986	842.449437	45.546134	0.094380	0.000000	0.092025	0.000000	0.000000	0.000000	0.000000	0.000000	0.000000	0.000000	16.954295	0.000000	0.000000	0.000000	0.000000	
18.783271	-43.767550	842.124012	45.654614	0.093572	0.000000	0.092055	0.000000	0.000000	0.000000	0.000000	0.000000	0.000000	0.000000	16.882881	0.000000	0.000000	0.000000	0.000000	
18.784926	-43.952112	841.675479	45.749464	0.092776	0.000000	0.092083	0.000000	0.000000	0.000000	0.000000	0.000000	0.000000	0.000000	16.808017	0.000000	0.000000	0.000000	0.000000	
18.786597	-44.123429	841.103132	45.830192	0.091991	0.000000	0.092112	0.000000	0.000000	0.000000	0.000000	0.000000	0.000000	0.000000	16.729920	0.000000	0.000000	0.000000	0.000000	
18.788263	-44.282311	840.406424	45.896327	0.091219	0.000000	0.092139	0.000000	0.000000	0.000000	0.000000	0.000000	0.000000	0.000000	16.648816	0.000000	0.000000	0.000000	0.000000	
